<svg width="215" height="64" viewBox="0 0 215 64" fill="none" xmlns="http://www.w3.org/2000/svg">
<path d="M184.594 57.1993H192.248V63.575H184.594V57.1993Z" fill="#121723"/>
<path d="M160.994 63.5749H152.701L163.971 33.8216H172.476L183.745 63.5749H175.453L173.539 58.2618H162.907L160.994 63.5749ZM164.821 52.7362H171.625L168.223 42.7476L164.821 52.7362Z" fill="#121723"/>
<path d="M148.669 33.3966C149.378 33.3966 150.653 33.5383 152.496 33.8217V39.5598H150.795C150.37 39.5598 149.987 39.7015 149.647 39.9848C149.307 40.2399 149.052 40.5232 148.881 40.8349L144.841 48.4858L153.134 63.575H145.054L138.463 51.4611H134.635V63.575H126.98V33.8217H134.635V45.5105H138.463L142.715 37.4346C143.339 36.2444 144.104 35.281 145.012 34.5442C145.947 33.7791 147.166 33.3966 148.669 33.3966Z" fill="#121723"/>
<path d="M114.219 53.7988C110.817 54.0822 107.599 54.2239 104.566 54.2239C101.561 54.2239 99.4059 53.5721 98.1017 52.2687C96.7976 50.9652 96.1455 48.9249 96.1455 46.148V33.8216H103.8V46.148C103.8 46.7997 103.985 47.3239 104.353 47.7206C104.75 48.089 105.274 48.2732 105.927 48.2732C108.251 48.2732 111.016 48.1315 114.219 47.8482V33.8216H121.874V63.5749H114.219V53.7988Z" fill="#121723"/>
<path d="M87.1953 41.8976C87.1953 40.1974 86.3448 39.3473 84.6438 39.3473H77.4143C75.7133 39.3473 74.8627 40.1974 74.8627 41.8976V55.4991C74.8627 57.1993 75.7133 58.0494 77.4143 58.0494H84.6438C86.3448 58.0494 87.1953 57.1993 87.1953 55.4991V41.8976ZM94.8501 55.4991C94.8501 58.4744 94.1696 60.6421 92.8088 62.0023C91.4763 63.3341 89.3216 64 86.3448 64H75.7133C72.7364 64 70.5676 63.3341 69.2067 62.0023C67.8743 60.6421 67.208 58.4744 67.208 55.4991V41.8976C67.208 38.9222 67.8743 36.7686 69.2067 35.4368C70.5676 34.0767 72.7364 33.3966 75.7133 33.3966H86.3448C89.3216 33.3966 91.4763 34.0767 92.8088 35.4368C94.1696 36.7686 94.8501 38.9222 94.8501 41.8976V55.4991Z" fill="#121723"/>
<path d="M58.2727 63.5749H50.618V39.7723H41.6875V33.8216H67.2032V39.7723H58.2727V63.5749Z" fill="#121723"/>
<path d="M25.941 63.5749H18.2863V45.2979L8.07998 63.5749H0V33.8216H7.65472V52.0986L17.861 33.8216H25.941V63.5749Z" fill="#121723"/>
<path d="M183.53 18.0646V12.5389H215V18.0646H183.53Z" fill="#121723"/>
<path d="M150.35 10.6262H160.131C163.108 10.6262 165.263 11.3063 166.595 12.6664C167.956 13.9982 168.636 16.1518 168.636 19.1271V21.6774C168.636 24.6528 167.956 26.8205 166.595 28.1806C165.263 29.5125 163.108 30.1784 160.131 30.1784H142.695V0.425049H150.35V10.6262ZM179.693 30.1784H172.038V0.425049H179.693V30.1784ZM160.982 19.1271C160.982 17.4269 160.131 16.5769 158.43 16.5769H150.35V24.2277H158.43C160.131 24.2277 160.982 23.3776 160.982 21.6774V19.1271Z" fill="#121723"/>
<path d="M139.288 29.7533C132.966 30.3201 127.721 30.6034 123.554 30.6034C120.775 30.6034 118.734 29.9517 117.43 28.6482C116.126 27.3447 115.474 25.3045 115.474 22.5275V8.926C115.474 5.95067 116.14 3.79709 117.472 2.46528C118.833 1.10513 121.002 0.425049 123.979 0.425049H139.288V6.37572H125.68C123.979 6.37572 123.128 7.22581 123.128 8.926V22.5275C123.128 23.1793 123.313 23.7035 123.681 24.1002C124.078 24.4686 124.574 24.6528 125.17 24.6528C125.765 24.6528 126.417 24.6528 127.126 24.6528C127.835 24.6244 128.572 24.5961 129.337 24.5677C130.103 24.5394 130.868 24.5111 131.634 24.4827C132.427 24.4544 133.434 24.3977 134.653 24.3127C135.9 24.2277 137.446 24.1285 139.288 24.0152V29.7533Z" fill="#121723"/>
<path d="M112.917 29.7533C106.595 30.3201 101.35 30.6034 97.1825 30.6034C94.4041 30.6034 92.3629 29.9517 91.0587 28.6482C89.7546 27.3447 89.1025 25.3045 89.1025 22.5275V8.926C89.1025 5.95067 89.7688 3.79709 91.1013 2.46528C92.4621 1.10513 94.631 0.425049 97.6078 0.425049H112.917V6.37572H99.3088C97.6078 6.37572 96.7573 7.22581 96.7573 8.926V22.5275C96.7573 23.1793 96.9415 23.7035 97.3101 24.1002C97.707 24.4686 98.2031 24.6528 98.7985 24.6528C99.3939 24.6528 100.046 24.6528 100.755 24.6528C101.464 24.6244 102.201 24.5961 102.966 24.5677C103.732 24.5394 104.497 24.5111 105.263 24.4827C106.056 24.4544 107.063 24.3977 108.282 24.3127C109.529 24.2277 111.074 24.1285 112.917 24.0152V29.7533Z" fill="#121723"/>
<path d="M78.0254 8.50095C78.0254 6.80076 77.1749 5.95066 75.4738 5.95066H68.2444C66.5433 5.95066 65.6928 6.80076 65.6928 8.50095V22.1025C65.6928 23.8027 66.5433 24.6528 68.2444 24.6528H75.4738C77.1749 24.6528 78.0254 23.8027 78.0254 22.1025V8.50095ZM85.6801 22.1025C85.6801 25.0778 84.9997 27.2455 83.6389 28.6057C82.3064 29.9375 80.1517 30.6034 77.1749 30.6034H66.5433C63.5665 30.6034 61.3977 29.9375 60.0368 28.6057C58.7043 27.2455 58.0381 25.0778 58.0381 22.1025V8.50095C58.0381 5.52562 58.7043 3.37204 60.0368 2.04023C61.3977 0.680076 63.5665 0 66.5433 0H77.1749C80.1517 0 82.3064 0.680076 83.6389 2.04023C84.9997 3.37204 85.6801 5.52562 85.6801 8.50095V22.1025Z" fill="#121723"/>
<path d="M28.6973 0.425049H46.5583C49.5351 0.425049 51.6898 1.10513 53.0223 2.46528C54.3831 3.79709 55.0635 5.95067 55.0635 8.926V13.1765C55.0635 16.1518 54.3831 18.3195 53.0223 19.6797C51.6898 21.0115 49.5351 21.6774 46.5583 21.6774H36.352V30.1784H28.6973V0.425049ZM47.4088 8.926C47.4088 7.22581 46.5583 6.37572 44.8572 6.37572H36.352V15.7268H44.8572C46.5583 15.7268 47.4088 14.8767 47.4088 13.1765V8.926Z" fill="#121723"/>
<path d="M21.6884 0C22.3971 0 23.6729 0.141682 25.5157 0.425047V6.16319H23.8147C23.3894 6.16319 23.0067 6.30487 22.6665 6.58824C22.3263 6.84327 22.0711 7.12663 21.901 7.43833L17.861 15.0892L26.1536 30.1784H18.0736L11.4821 18.0645H7.65472V30.1784H0V0.425047H7.65472V12.1139H11.4821L15.7347 4.03795C16.3584 2.84782 17.1239 1.88438 18.0311 1.14763C18.9667 0.382543 20.1858 0 21.6884 0Z" fill="#121723"/>
</svg>
